<svg version="1.1" viewBox="0 0 67.73333 67.73333" xmlns="http://www.w3.org/2000/svg">
 <g transform="translate(160.11 -159.57)">
  <circle cx="-126.24" cy="193.43" r="33.867" fill="#fff"/>
  <path d="m-110.3 199.77v2.4046c0 2.4845-0.72645 3.1383-1.4529 3.5669a2.746 2.746 0 0 1 -1.2858 0.43588h-7.606a7.0757 7.0757 0 0 0 -4.5113 1.511 7.8458 7.8458 0 0 0 -2.2448 3.1674 12.052 12.052 0 0 0 -0.84269 4.1989h4.0609a8.5867 8.5867 0 0 1 0.57391 -2.6443 3.9156 3.9156 0 0 1 1.0606 -1.5619 2.7242 2.7242 0 0 1 1.9251 -0.61022h7.6278a7.0539 7.0539 0 0 0 3.4434 -1.097c1.7072-1.0824 3.3199-3.4434 3.3199-6.9958v-2.3755zm-36.011 0v2.4046c0 3.5524 1.6127 5.9134 3.3199 6.9958a7.0539 7.0539 0 0 0 3.4652 1.0679h7.6278a2.7242 2.7242 0 0 1 1.9251 0.61022 3.9156 3.9156 0 0 1 1.0606 1.5619 8.5867 8.5867 0 0 1 0.54484 2.6734h4.0318a12.052 12.052 0 0 0 -0.8427 -4.1989 7.8458 7.8458 0 0 0 -2.2157 -3.1964 7.0757 7.0757 0 0 0 -4.5113 -1.5401h-7.6206a2.746 2.746 0 0 1 -1.2858 -0.43588c-0.66835-0.42861-1.4529-1.0824-1.4529-3.5669v-2.3755zm19.84-22.186-1.4529 1.3512s-4.7292 4.1263-4.7656 9.9743a7.1992 7.1992 0 0 0 2.3319 5.5066 5.8698 5.8698 0 0 0 7.715 0 7.3082 7.3082 0 0 0 2.2448 -5.5211c0-5.6155-4.6639-9.9089-4.6639-9.9089l-1.3948-1.4021zm-0.0944 6.1313c0.98072 1.4529 2.1067 3.4216 2.1067 5.2087 0 1.5546-0.4286 2.0777-0.87901 2.4845a1.6926 1.6926 0 0 1 -2.3464 -0.0436c-0.48674-0.41408-0.91534-0.93713-0.91534-2.4191 0-1.9542 1.0897-3.8575 2.0486-5.216zm-7.4317-13.381-0.93713 3.0511a58.117 58.117 0 0 1 -2.3247 5.9279c-1.0388 2.3682-3.1746 5.8117-3.1746 9.9162 0 6.5381 5.3976 14.006 14.166 14.006a13.396 13.396 0 0 0 10.17 -4.2498 14.362 14.362 0 0 0 3.487 -9.6692c0-4.119-2.1794-7.577-3.1601-9.9743a35.458 35.458 0 0 1 -1.9178 -5.6446l-0.72646-3.2691-8.0637 6.7052zm1.867 7.1629 5.5574 5.0198 1.3512-1.126 4.5186-3.7558c0.32691 0.98072 0.63203 1.9469 1.1914 3.2836 1.1914 2.855 2.8404 5.8117 2.8404 8.4051a10.33 10.33 0 0 1 -2.4482 6.9522c-1.5764 1.758-3.8502 2.9058-7.1484 2.9058-6.4292 0-10.098-5.63-10.098-9.938 0-2.6225 1.6127-5.5138 2.8259-8.2744 0.63203-1.4529 1.017-2.4482 1.4093-3.4579z" fill="#c81b37" stroke-width=".72646"/>
 </g>
</svg>
